<svg width="110" height="111" viewBox="0 0 110 111" fill="none" xmlns="http://www.w3.org/2000/svg">
<path opacity="0.5" d="M109.167 82.5827V55.4994C109.167 25.5831 84.9162 1.33273 55 1.33273C25.0837 1.33273 0.833313 25.5831 0.833313 55.4994V87.9994" stroke="black" stroke-width="1.5"/>
<path d="M33.3333 72.7623C33.3333 69.6315 33.3333 68.0661 32.9596 66.8202C32.5586 65.4291 31.7999 64.1674 30.7592 63.1609C29.7185 62.1544 28.4321 61.4383 27.0283 61.084C25.8096 60.7915 24.32 60.9215 21.33 61.1652C16.1516 61.5931 13.5571 61.8044 11.4446 62.6277C6.57498 64.5073 2.85915 68.7106 1.4454 73.9377C0.833313 76.2073 0.833313 78.9211 0.833313 84.3594V85.3669C0.833313 90.9461 0.833312 93.7302 1.49956 96.0865C2.12049 98.3441 3.20643 100.447 4.68771 102.26C6.16899 104.074 8.01292 105.558 10.1012 106.616C12.2246 107.673 14.8571 108.106 20.1221 108.978C23.6158 109.552 25.3654 109.845 26.7791 109.552C28.1716 109.251 29.462 108.593 30.5243 107.644C31.5867 106.694 32.3847 105.486 32.8404 104.136C33.3333 102.722 33.3333 100.869 33.3333 97.1698V72.7623ZM76.6667 72.7623C76.6667 69.6315 76.6667 68.0661 77.0404 66.8202C77.4419 65.4293 78.2008 64.1679 79.2414 63.1615C80.282 62.155 81.5681 61.4388 82.9716 61.084C84.1904 60.7915 85.68 60.9215 88.6646 61.1652C93.8483 61.5931 96.4429 61.8044 98.5554 62.6277C103.425 64.5073 107.141 68.7106 108.555 73.9377C109.167 76.2073 109.167 78.9211 109.167 84.3594V85.3669C109.167 90.9461 109.167 93.7302 108.5 96.0865C107.879 98.344 106.793 100.447 105.312 102.26C103.831 104.073 101.987 105.557 99.8987 106.616C97.7754 107.673 95.1429 108.106 89.8779 108.978C86.3841 109.552 84.6346 109.845 83.2208 109.552C81.8284 109.251 80.538 108.593 79.4756 107.644C78.4133 106.694 77.6153 105.486 77.1596 104.136C76.6666 102.722 76.6667 100.869 76.6667 97.1698V72.7623Z" stroke="black" stroke-width="1.5"/>
<path d="M55 25.7077V52.7911M71.25 33.8327V44.6661M38.75 33.8327V44.6661" stroke="black" stroke-width="1.5" stroke-linecap="round"/>
</svg>
