<svg width="61" height="100" viewBox="0 0 61 100" fill="none" xmlns="http://www.w3.org/2000/svg">
<path d="M13.3571 42.069V18.1822C13.3571 13.36 15.1633 8.73526 18.3782 5.32544C21.5931 1.91562 25.9534 0 30.5 0C35.0466 0 39.4069 1.91562 42.6218 5.32544C45.8367 8.73526 47.6429 13.36 47.6429 18.1822V42.069C52.8842 45.9399 56.824 51.4839 58.8889 57.8942C60.9538 64.3044 61.0359 71.2463 59.1233 77.7095C57.2107 84.1727 53.4033 89.8198 48.2551 93.829C43.107 97.8381 36.8868 100 30.5 100C24.1132 100 17.893 97.8381 12.7449 93.829C7.59672 89.8198 3.78928 84.1727 1.8767 77.7095C-0.0358762 71.2463 0.0462402 64.3044 2.1111 57.8942C4.17596 51.4839 8.11578 45.9399 13.3571 42.069ZM26.2143 50.5737C22.1836 51.6907 18.674 54.3255 16.3409 57.986C14.0077 61.6466 13.0104 66.0827 13.5353 70.466C14.0601 74.8494 16.0712 78.8803 19.1931 81.806C22.3149 84.7318 26.334 86.3525 30.5 86.3653C34.6754 86.3697 38.7088 84.7577 41.8431 81.8317C44.9774 78.9058 46.9971 74.8672 47.5232 70.4739C48.0493 66.0806 47.0455 61.6348 44.7002 57.9707C42.355 54.3067 38.8296 51.6765 34.7857 50.5737V18.1822H26.2143V50.5737Z" fill="black"/>
</svg>
